<svg width="1000" height="1000" viewBox="0 0 1000 1000" fill="none" xmlns="http://www.w3.org/2000/svg">
<circle cx="500" cy="500" r="500" fill="white"/>
<path d="M761.818 721C757.593 721 754.636 719.099 752.946 715.297L678.174 546.743C677.329 545.054 676.062 544.209 674.372 544.209H632.551C630.439 544.209 629.382 545.265 629.382 547.377V713.396C629.382 715.508 628.538 717.409 626.848 719.099C625.581 720.366 623.891 721 621.779 721H531.799C529.687 721 527.786 720.366 526.096 719.099C524.828 717.409 524.195 715.508 524.195 713.396V285.041C524.195 282.929 524.828 281.24 526.096 279.972C527.786 278.282 529.687 277.438 531.799 277.438H719.996C747.877 277.438 772.379 283.14 793.501 294.546C814.623 305.952 830.887 322.216 842.292 343.338C854.121 364.038 860.035 387.906 860.035 414.942C860.035 443.245 853.065 467.747 839.124 488.447C825.184 509.146 805.751 524.143 780.827 533.436C778.715 534.281 778.081 535.76 778.926 537.872L862.57 712.129C863.414 713.819 863.837 715.086 863.837 715.931C863.837 719.31 861.513 721 856.867 721H761.818ZM632.551 367.417C630.439 367.417 629.382 368.473 629.382 370.586V460.565C629.382 462.678 630.439 463.734 632.551 463.734H702.887C718.517 463.734 731.191 459.509 740.907 451.061C750.623 442.189 755.481 430.572 755.481 416.209C755.481 401.424 750.623 389.595 740.907 380.724C731.191 371.853 718.517 367.417 702.887 367.417H632.551Z" fill="black"/>
<path d="M471.067 277.438C473.179 277.438 474.869 278.282 476.136 279.972C477.826 281.24 478.671 282.929 478.671 285.041V360.447C478.671 362.559 477.826 364.46 476.136 366.15C474.869 367.417 473.179 368.051 471.067 368.051H360.176C358.064 368.051 357.008 369.107 357.008 371.219V713.396C357.008 715.508 356.163 717.409 354.473 719.099C353.206 720.366 351.516 721 349.404 721H259.424C257.312 721 255.411 720.366 253.721 719.099C252.454 717.409 251.82 715.508 251.82 713.396V371.219C251.82 369.107 250.764 368.051 248.652 368.051H141.563C139.451 368.051 137.55 367.417 135.86 366.15C134.593 364.46 133.959 362.559 133.959 360.447V285.041C133.959 282.929 134.593 281.24 135.86 279.972C137.55 278.282 139.451 277.438 141.563 277.438H471.067Z" fill="black"/>
</svg>
